<svg id="Слой_1" data-name="Слой 1" xmlns="http://www.w3.org/2000/svg" viewBox="0 0 360.66 200.26"><defs><style>.cls-1{fill:#213786;}</style></defs><title>logo</title><path class="cls-1" d="M171.5,114.47h24.79a2.22,2.22,0,0,1,2.22,2.23v2.66a2.22,2.22,0,0,1-2.22,2.23H171.5a2.22,2.22,0,0,1-1.57-.66,2.19,2.19,0,0,1-.65-1.57V116.7a2.23,2.23,0,0,1,.65-1.58,2.21,2.21,0,0,1,1.57-.65Zm169.92,6H320.7a2.64,2.64,0,1,0,0,5.28h20.72a2.64,2.64,0,0,0,0-5.28Zm-100-12.45h0a4.81,4.81,0,0,1,4.81,4.8h0l.06,16.69a4.81,4.81,0,0,1-4.8,4.83h0a4.82,4.82,0,0,1-4.82-4.8l-.06-16.69h0a4.83,4.83,0,0,1,4.81-4.84Zm-69.9,18.82h24.79a2.22,2.22,0,0,1,2.22,2.23v4.27a2.22,2.22,0,0,1-2.22,2.23H171.5a2.21,2.21,0,0,1-1.57-.65,2.23,2.23,0,0,1-.65-1.58v-4.27a2.22,2.22,0,0,1,2.22-2.23Zm214.27,3h22.77a3.12,3.12,0,0,1,3.12,3.12v3.42a3.12,3.12,0,0,1-3.12,3.12H385.77a3.15,3.15,0,0,1-2.21-.91,3.12,3.12,0,0,1-.92-2.21V133a3.12,3.12,0,0,1,3.13-3.12ZM171.5,138.26h24.79a2.22,2.22,0,0,1,2.22,2.23V141a2.22,2.22,0,0,1-2.22,2.23H171.5a2.22,2.22,0,0,1-1.57-.66,2.19,2.19,0,0,1-.65-1.57v-.55a2.19,2.19,0,0,1,.65-1.57,2.22,2.22,0,0,1,1.57-.66Zm143.66-1.48a2,2,0,0,0-1.53.71l-4.51,5.44a2,2,0,0,0,.26,2.79,2,2,0,0,0,1.27.45,2,2,0,0,0,1.52-.71l4.51-5.44a2,2,0,0,0-.26-2.79,2,2,0,0,0-1.26-.45ZM171.5,147h24.79a2.22,2.22,0,0,1,2.22,2.23v2.66a2.22,2.22,0,0,1-2.22,2.23H171.5a2.22,2.22,0,0,1-1.57-.66,2.19,2.19,0,0,1-.65-1.57v-2.66a2.23,2.23,0,0,1,.65-1.58,2.21,2.21,0,0,1,1.57-.65ZM324,138a2,2,0,0,0-1.53.71l-11.57,14a2,2,0,0,0,.26,2.79,2,2,0,0,0,1.26.46,2,2,0,0,0,1.53-.72l11.57-14a2,2,0,0,0-.26-2.79A2,2,0,0,0,324,138Zm28-3.92c3.77,0,5.68.21,6.43,1s1,2.88,1.06,6.85h0v10.34h0c-.07,3.74-.27,5.69-1.08,6.5s-2.92,1.09-6.75,1.26H310.34c-3.82-.11-5.85-.34-6.67-1.16s-1-2.82-1.15-6.61h0V142h0v0c.16-3.7.4-5.69,1.24-6.53s2.88-1.12,6.6-1.31H352Zm.82-5.19H310.17l-.5,0c-2.88.14-7.12.34-9.57,2.8s-2.6,6.17-2.72,9c0,.18,0,.37,0,.55s0,.33,0,.49v10.53c0,.17,0,.33,0,.51.07,2.9.17,7.22,2.65,9.71,2.32,2.32,6.26,2.56,9.13,2.65h42.72l.51,0c2.94-.12,7.27-.29,9.73-2.76s2.54-6.23,2.59-9.06c0-.19,0-.39,0-.57V141.83c0-.17,0-.36,0-.54,0-3-.07-7.4-2.57-9.9s-6.42-2.49-9.28-2.49ZM171.5,158.57h24.79a2.22,2.22,0,0,1,2.22,2.23v2.66a2.22,2.22,0,0,1-2.22,2.23H171.5a2.21,2.21,0,0,1-1.57-.65,2.23,2.23,0,0,1-.65-1.58V160.8a2.19,2.19,0,0,1,.65-1.57,2.22,2.22,0,0,1,1.57-.66Zm214.27-.16h51.44a3.13,3.13,0,0,1,3.12,3.13V165a3.13,3.13,0,0,1-3.12,3.13H385.77a3.14,3.14,0,0,1-3.13-3.13v-3.41a3.14,3.14,0,0,1,3.13-3.13ZM241.53,147h0a4.82,4.82,0,0,1,4.82,4.8l0,16.7a4.81,4.81,0,0,1-4.8,4.83h0a4.82,4.82,0,0,1-4.82-4.8l-.05-16.69a4.82,4.82,0,0,1,4.8-4.84Zm-70,24h24.79a2.22,2.22,0,0,1,2.22,2.23v4.28a2.22,2.22,0,0,1-2.22,2.23H171.5a2.24,2.24,0,0,1-2.22-2.23v-4.28A2.22,2.22,0,0,1,171.5,171Zm0,11.38h24.79a2.22,2.22,0,0,1,2.22,2.23v.54a2.22,2.22,0,0,1-2.22,2.23H171.5a2.21,2.21,0,0,1-1.57-.65,2.23,2.23,0,0,1-.65-1.58v-.54a2.22,2.22,0,0,1,2.22-2.23Zm178.17-7.91a6.91,6.91,0,1,0,6.92,6.91,6.92,6.92,0,0,0-6.92-6.91h0Zm-37.23,0a6.91,6.91,0,1,0,6.91,6.91,6.91,6.91,0,0,0-6.91-6.91Zm73.33,11.42h51.44a3.13,3.13,0,0,1,3.12,3.13v3.42a3.12,3.12,0,0,1-3.12,3.12H385.77a3.15,3.15,0,0,1-2.21-.91,3.12,3.12,0,0,1-.92-2.21V189a3.14,3.14,0,0,1,3.13-3.13ZM171.5,191.06h24.79a2.22,2.22,0,0,1,2.22,2.23V196a2.22,2.22,0,0,1-2.22,2.23H171.5a2.21,2.21,0,0,1-1.57-.65,2.23,2.23,0,0,1-.65-1.58v-2.66a2.19,2.19,0,0,1,.65-1.57,2.22,2.22,0,0,1,1.57-.66ZM302,113.63h58.21c2.57.13,7.43.17,10.17,2.91s2.65,7.61,2.68,10.06v39.54h0v16s0,.09,0,.14h0v.07h0c-.25,5.69-.4,13.65-4.75,18s-12.31,4.35-17.87,4.47H311.51c-5.64-.24-13.56-.37-17.93-4.74s-4.43-12.26-4.62-17.84V171.67h0v-45c0-.06,0-.13,0-.19.14-2.46.2-7.1,2.93-9.82s7.29-2.83,9.81-3H302ZM171.5,203.7h24.79a2.22,2.22,0,0,1,2.22,2.23v2.66a2.22,2.22,0,0,1-2.22,2.23H171.5a2.22,2.22,0,0,1-2.22-2.23v-2.66a2.23,2.23,0,0,1,.65-1.58,2.21,2.21,0,0,1,1.57-.65Zm70.16-18.64h0a4.83,4.83,0,0,1,4.82,4.81l.05,16.69a4.82,4.82,0,0,1-4.8,4.84h0a4.83,4.83,0,0,1-4.82-4.81l-.06-16.69a4.84,4.84,0,0,1,4.81-4.84ZM354,219Zm-182.5-2.85h24.79a2.22,2.22,0,0,1,2.22,2.23v4.27a2.22,2.22,0,0,1-2.22,2.23H171.5a2.21,2.21,0,0,1-1.57-.65,2.23,2.23,0,0,1-.65-1.58v-4.27a2.23,2.23,0,0,1,.65-1.58,2.21,2.21,0,0,1,1.57-.65ZM354,219H306.25l-2.83,10.9h53.4L354,219Zm-182.5,8.52h24.79a2.22,2.22,0,0,1,2.22,2.23v.55a2.22,2.22,0,0,1-2.22,2.23H171.5a2.22,2.22,0,0,1-1.57-.66,2.19,2.19,0,0,1-.65-1.57v-.55a2.19,2.19,0,0,1,.65-1.57,2.22,2.22,0,0,1,1.57-.66Zm0,8.7h24.79a2.22,2.22,0,0,1,2.22,2.23v2.66a2.22,2.22,0,0,1-2.22,2.23H171.5a2.22,2.22,0,0,1-2.22-2.23v-2.66a2.23,2.23,0,0,1,.65-1.58,2.21,2.21,0,0,1,1.57-.65Zm127.44-28.46a68,68,0,0,0,10,.89h0l-.83,3.23h44.07l-.84-3.22h0a62.44,62.44,0,0,0,10-.75h0l9.39,36.26H360.51L358.67,237H301.58l-1.85,7.14H289.52l9.42-36.41ZM241.79,224h0a4.82,4.82,0,0,1,4.82,4.8l.05,16.7a4.81,4.81,0,0,1-4.8,4.83h0a4.82,4.82,0,0,1-4.82-4.8l0-16.69a4.82,4.82,0,0,1,4.8-4.84ZM448.35,78.76h0l-183.94.62-.45,0v.18a22.06,22.06,0,0,1-44.12.08h0a8,8,0,0,0-1.38-.12h0l-69,.23h-.16c-3.65.09-9.32,0-14.66,1.46h0A14.23,14.23,0,0,1,120.7,94.55h0c-1.71,5.62-1.69,11.78-1.81,15.71v.26l0,5.32h1.51a14.22,14.22,0,0,1,0,28.44H119l.07,20.63h1.35a14.23,14.23,0,0,1,0,28.45h-1.25l.07,20.26h1.18a14.22,14.22,0,0,1,0,28.44h-1.08l0,6.41v.05c0,3.6-.1,9.23,1.26,14.56h0a14.22,14.22,0,0,1,14,14.22v0h0c5.45,1.52,11.33,1.55,15.16,1.68h.3l69-.24c.25,0,.5,0,.74,0h0v-.55a22.06,22.06,0,1,1,44.12,0v.35a8,8,0,0,0,1.1.08h0L449,278h.05c3.63,0,9.36.1,14.75-1.34h0a14.21,14.21,0,0,1,13.84-13.58h0c1.65-5.53,1.72-11.55,1.89-15.48,0-.12,0-.24,0-.35l0-5.2H478a14.22,14.22,0,1,1,0-28.44h1.42l-.07-20.26H478a14.23,14.23,0,0,1,0-28.45h1.26l-.07-20.63H478a14.22,14.22,0,1,1,0-28.44h1.09l0-6.54v-.07c-.05-3.64.07-9.31-1.29-14.68h0a14.22,14.22,0,0,1-14-14.22v-.06h0c-5.52-1.5-11.46-1.43-15.28-1.51Zm0,0" transform="translate(-118.89 -78.76)"/></svg>